<svg xmlns="http://www.w3.org/2000/svg"  viewBox="0 0 48 48" width="48px" height="48px"><path fill="#3ddab4" d="M10.662,33.782c-0.515,0.913-0.441,1.81,0.189,3.069l-0.698-1.251 c0.34,0.615,0.625,1.127,0.781,1.401c0.784,1.381,2.284,2.746,4.471,2.967L15.587,40h7.412l0.578-9H12.268L10.662,33.782z"/><path fill="#3ddab4" d="M42.534,23.788l-0.06-0.184l-3.706-6.408l-7.717,4.465l5.283,9.338h3.133v0.002 c1.063-0.031,1.77-0.67,2.672-1.976C42.954,27.648,43.401,25.716,42.534,23.788z"/><path fill="#3ddab4" d="M27.178,6.015L20.62,6.014c0.023,0,0.044,0,0.069,0.001H27.178z"/><path fill="#3ddab4" d="M20.689,6.015H20.3c0.015,0,0.04-0.001,0.058-0.001l-0.3,0c-1.688-0.027-3.746,0.57-4.96,2.308 l-0.093,0.152l-3.705,6.41l7.719,4.467l5.479-8.956l-1.832-3.198C22.042,6.199,21.213,6.036,20.689,6.015z"/><path fill="#3ddab4" d="M12.268,31l3.408-5.904l2.735,1.577l-4.467-7.656H5.163l2.732,1.611l-2.613,4.495 c-0.332,0.517-0.484,1.062,0.093,1.916l4.778,8.562C9.134,33.759,7.621,31,7.621,31H12.268z"/><path fill="#3ddab4" d="M20.358,6.014h0.262C20.516,6.012,20.428,6.013,20.358,6.014z"/><path fill="#3ddab4" d="M36.334,30.999h-6.867v-3.123l-4.405,7.685l4.376,7.596L29.469,40h5.197 c0.606,0.059,1.185-0.095,1.608-1.035l5.865-9.94c-0.701,1.184-3.533,5.988-3.533,5.988L36.334,30.999z"/><path fill="#3ddab4" d="M33.783,17.437l4.375-7.626l-2.731,1.579l-2.582-4.497c-0.275-0.578-0.699-0.975-1.732-0.878 h-3.935l-2.679,4.38l3.149,5.495l-2.703,1.58L33.783,17.437z"/><path fill="#00b569" d="M39.467,31.001v-0.002h-3.133l2.271,4.014c0,0,2.832-4.804,3.533-5.988 C41.237,30.331,40.53,30.97,39.467,31.001z"/><path fill="#00b569" d="M10.662,33.782L12.268,31H7.621c0,0,1.513,2.759,2.532,4.601l0.698,1.251 C10.221,35.592,10.147,34.695,10.662,33.782z"/><path fill="#00b569" d="M20.689,6.015c0.524,0.021,1.354,0.184,1.977,1.182l1.832,3.198l2.679-4.38H20.689z"/><path fill="#3ddab4" d="M20.689,6.015c-0.025-0.001-0.045-0.001-0.069-0.001h-0.262c-0.018,0-0.043,0.001-0.058,0.001 H20.689z"/></svg>